<?xml version="1.0" encoding="UTF-8"?>
<!DOCTYPE svg PUBLIC "-//W3C//DTD SVG 1.1//EN" "http://www.w3.org/Graphics/SVG/1.1/DTD/svg11.dtd">
<!-- Creator: CorelDRAW X8 -->
<svg xmlns="http://www.w3.org/2000/svg" xml:space="preserve" width="3.92348in" height="0.999142in" version="1.1" style="shape-rendering:geometricPrecision; text-rendering:geometricPrecision; image-rendering:optimizeQuality; fill-rule:evenodd; clip-rule:evenodd"
viewBox="0 0 4081 1039"
 xmlns:xlink="http://www.w3.org/1999/xlink">
 <defs>
  <style type="text/css">
   <![CDATA[
    .fil0 {fill:#00AFEF}
    .fil1 {fill:#4D4D4D}
    .fil2 {fill:#4D4D4D;fill-rule:nonzero}
   ]]>
  </style>
 </defs>
 <g id="Layer_x0020_1">
  <metadata id="CorelCorpID_0Corel-Layer"/>
  <g id="_2065707015584">
   <path class="fil0" d="M594 611l-218 1c-26,0 -47,21 -47,47 0,26 21,47 47,47l35 0 107 0 76 0 94 0c25,0 48,-2 71,-6 4,-1 8,-2 12,-3 11,-2 21,-4 31,-7 53,-16 99,-43 136,-80 18,-18 35,-39 48,-63 20,-34 34,-74 41,-117 4,-22 6,-45 6,-68 0,-9 0,-18 -1,-27 -6,-89 -45,-170 -105,-229 -65,-66 -156,-106 -256,-106 -99,0 -190,40 -255,106 -36,36 -65,80 -83,129l103 0c13,-23 28,-44 47,-62 48,-48 115,-78 188,-78 74,0 141,30 189,78 48,48 78,115 78,189 0,76 -24,139 -67,181 -1,2 -3,3 -4,4 -43,41 -105,64 -179,64l-4 0 0 0 -64 0 -9 0 -17 0z"/>
   <path class="fil0" d="M1071 434c44,10 84,32 115,63 41,41 66,97 66,160 0,62 -25,119 -66,160 -42,41 -98,67 -161,67l-269 0 -64 63 -31 32 364 0c89,0 169,-37 228,-95 58,-58 94,-139 94,-227 0,-89 -36,-169 -94,-227 -47,-47 -109,-80 -177,-91 1,8 1,15 1,23 0,24 -2,48 -6,72z"/>
   <path class="fil0" d="M635 423l-35 -18 -45 6 44 -24 36 36zm55 11l-42 -43 -43 -42 -64 34c-25,-15 -51,-26 -80,-34l-21 -69 -23 0 -37 0 -60 0 -2 5 -20 64c-28,8 -55,19 -80,34l-64 -34 -43 42 -42 43 33 64c-14,25 -25,52 -33,80l-69 22 0 60 0 60 69 21c8,29 19,56 33,80l-33 65 42 42 43 42 64 -33c25,14 52,25 80,33l22 69 60 0 60 0 21 -69c29,-8 55,-19 80,-33l64 33 23 -22 20 -20 42 -42 -1 -2 -32 -63c6,-10 11,-20 16,-31 5,-13 10,-26 14,-39l-108 0c-6,14 -14,27 -23,39 -40,54 -104,89 -176,89 -122,0 -220,-98 -220,-219 0,-122 98,-220 220,-220 62,0 119,27 159,69 16,17 29,36 39,57l108 0c-6,-20 -14,-39 -23,-57 -2,-4 -4,-8 -6,-11l33 -64zm-658 211l12 37 36 28 -48 -15 0 -50zm94 -207l5 46 -23 -45 36 -35 -18 34zm507 442l-5 -46 23 44 -6 6 -17 17 -13 13 13 -24 3 -6 2 -4zm-305 -520l15 -48 50 0 -37 11 -28 37zm38 646l37 -12 28 -36 -15 48 -50 0zm-207 -94l45 -5 -44 23 -35 -35 34 17z"/>
   <path class="fil0" d="M249 660c0,-89 67,-163 153,-174 -8,0 -15,-1 -22,-1 -97,0 -175,78 -175,175 0,96 78,174 175,174 7,0 14,0 22,-1 -86,-11 -153,-85 -153,-173z"/>
   <polygon class="fil1" points="1524,7 1550,7 1550,1032 1524,1032 "/>
   <path class="fil2" d="M2026 183l-81 0 0 185 -159 -185 -62 0 0 328 82 0 0 -180 157 180 63 0 0 -328zm995 328l86 0 -139 -330 -78 0 -139 330 87 0 22 -56 104 0 -27 -70 -50 0 42 -109 21 53 71 182zm-218 -328l-90 0 -93 222 -94 -222 -89 0 142 330 82 0 142 -330zm-554 -7c-99,0 -173,75 -173,171 0,95 74,171 173,171 100,0 174,-76 174,-171 0,-96 -74,-171 -174,-171zm0 266c-53,0 -91,-43 -91,-95 0,-52 38,-95 91,-95 53,0 92,43 92,95 0,52 -39,95 -92,95z"/>
   <path class="fil2" d="M4081 837l-124 0 0 -200 -23 0 0 221 147 0 0 -21zm-1964 -10l2 5 12 26 25 0 -101 -223 -22 0 -100 223 25 0 28 -64 93 0 -9 -21 -74 0 48 -110 31 68c14,32 28,64 42,96zm-370 10l0 -179 54 0c54,0 93,37 93,88 0,53 -39,91 -93,91l-54 0zm-23 -200l0 221 77 0c69,0 116,-46 116,-112 0,-64 -47,-109 -116,-109l-77 0zm610 21l0 -21 -187 0 0 21 82 0 0 200 23 0 0 -200 82 0zm172 169l2 5 12 26 25 0 -101 -223 -21 0 -101 223 25 0 28 -64 93 0 -9 -21 -74 0 48 -110 31 68c14,32 28,64 42,96zm244 -195c-47,0 -78,25 -78,63 0,30 20,51 61,58l38 8c29,5 42,19 42,38 0,26 -23,43 -58,43 -41,0 -65,-20 -70,-55l-23 0c5,48 39,76 92,76 49,0 82,-27 82,-67 0,-32 -22,-50 -61,-58l-34 -6c-29,-5 -45,-18 -45,-38 0,-26 22,-42 56,-42 37,0 56,18 62,45l22 0c-5,-44 -41,-65 -86,-65zm238 208c-51,0 -91,-40 -91,-93 0,-53 40,-93 91,-93 37,0 65,19 77,48l25 0c-14,-42 -52,-70 -102,-70 -64,0 -115,50 -115,115 0,66 51,116 115,116 50,0 88,-28 102,-71l-25 0c-12,30 -40,48 -77,48zm338 -203l-23 0 0 101 -134 0 0 -101 -23 0 0 221 23 0 0 -99 134 0 0 99 23 0 0 -221zm167 204c-51,0 -91,-42 -91,-94 0,-51 40,-93 91,-93 52,0 93,42 93,93 0,52 -41,94 -93,94zm1 -209c-64,0 -115,52 -115,115 0,64 51,116 115,116 64,0 115,-52 115,-116 0,-63 -51,-115 -115,-115zm272 209c-51,0 -91,-42 -91,-94 0,-51 40,-93 91,-93 52,0 92,42 92,93 0,52 -40,94 -92,94zm1 -209c-64,0 -115,52 -115,115 0,64 51,116 115,116 63,0 115,-52 115,-116 0,-63 -52,-115 -115,-115z"/>
  </g>
 </g>
</svg>
